<?xml version="1.0" encoding="utf-8"?>
<svg version="1.1" xmlns:xlink="http://www.w3.org/1999/xlink" width="12px" height="12px" viewBox="73 393  12 12" xmlns="http://www.w3.org/2000/svg">
  <path d="M 73.5 395  A 1.5 1.5 0 0 1 75 393.5 L 83 393.5  A 1.5 1.5 0 0 1 84.5 395 L 84.5 403  A 1.5 1.5 0 0 1 83 404.5 L 75 404.5  A 1.5 1.5 0 0 1 73.5 403 L 73.5 395  Z " fill-rule="nonzero" fill="#ffffff" stroke="none" />
  <path d="M 73.5 395  A 1.5 1.5 0 0 1 75 393.5 L 83 393.5  A 1.5 1.5 0 0 1 84.5 395 L 84.5 403  A 1.5 1.5 0 0 1 83 404.5 L 75 404.5  A 1.5 1.5 0 0 1 73.5 403 L 73.5 395  Z " stroke-width="1" stroke="#797979" fill="none" />
  <path d="M 75.5714285714286 399  L 78.1428571428571 401.571428571429  " stroke-width="2.57142857142857" stroke="#797979" fill="none" />
  <path d="M 78.1428571428571 401.571428571429  L 82.4285714285714 395.571428571429  " stroke-width="2.57142857142857" stroke="#797979" fill="none" />
</svg>