<?xml version="1.0" encoding="utf-8"?>
<svg version="1.1" xmlns:xlink="http://www.w3.org/1999/xlink" width="15px" height="15px" xmlns="http://www.w3.org/2000/svg">
  <g transform="matrix(1 0 0 1 -463 -283 )">
    <path d="M 15 7.5  C 15 3.3525  11.6475 0  7.5 0  C 3.3525 0  0 3.3525  0 7.5  C 0 11.6475  3.3525 15  7.5 15  C 11.6475 15  15 11.6475  15 7.5  Z M 13.5 7.5  C 13.5 10.8075  10.8075 13.5  7.5 13.5  C 4.1925 13.5  1.5 10.8075  1.5 7.5  C 1.5 4.1925  4.1925 1.5  7.5 1.5  C 10.8075 1.5  13.5 4.1925  13.5 7.5  Z M 11.25 4.8075  L 10.1925 3.75  L 7.5 6.4425  L 4.8075 3.75  L 3.75 4.8075  L 6.4425 7.5  L 3.75 10.1925  L 4.8075 11.25  L 7.5 8.5575  L 10.1925 11.25  L 11.25 10.1925  L 8.5575 7.5  L 11.25 4.8075  Z " fill-rule="nonzero" fill="#ffffff" stroke="none" transform="matrix(1 0 0 1 463 283 )" />
  </g>
</svg>