<?xml version="1.0" encoding="utf-8"?>
<svg version="1.1" xmlns:xlink="http://www.w3.org/1999/xlink" width="194px" height="194px" xmlns="http://www.w3.org/2000/svg">
  <g transform="matrix(1 0 0 1 -885 -287 )">
    <path d="M 194 97  C 194 151.32  151.32 194  97 194  C 42.68 194  0 151.32  0 97  C 0 42.68  42.68 0  97 0  C 151.32 0  194 42.68  194 97  Z M 14.2947368421053 96.659649122807  C 14.2947368421053 142.784  50.535298245614 179.024561403509  96.659649122807 179.024561403509  C 142.784 179.024561403509  179.024561403509 142.784  179.024561403509 96.659649122807  C 179.024561403509 50.535298245614  142.784 14.2947368421053  96.659649122807 14.2947368421053  C 50.535298245614 14.2947368421053  14.2947368421053 50.535298245614  14.2947368421053 96.659649122807  Z " fill-rule="nonzero" fill="#006c91" stroke="none" transform="matrix(1 0 0 1 885 287 )" />
  </g>
</svg>