<?xml version="1.0" encoding="utf-8"?>
<svg version="1.1" xmlns:xlink="http://www.w3.org/1999/xlink" width="15px" height="15px" xmlns="http://www.w3.org/2000/svg">
  <g transform="matrix(1 0 0 1 -1089 -50 )">
    <path d="M 15 1.95  C 15 1.618125  14.731875 1.35  14.4 1.35  L 11.25 1.35  L 11.25 0.15  C 11.25 0.0674999999999999  11.1825 0  11.1 0  L 10.05 0  C 9.9675 0  9.9 0.0674999999999999  9.9 0.15  L 9.9 1.35  L 5.1 1.35  L 5.1 0.15  C 5.1 0.0674999999999999  5.0325 0  4.95 0  L 3.9 0  C 3.8175 0  3.75 0.0674999999999999  3.75 0.15  L 3.75 1.35  L 0.6 1.35  C 0.268125 1.35  0 1.618125  0 1.95  L 0 14.4  C 0 14.731875  0.268125 15  0.6 15  L 14.4 15  C 14.731875 15  15 14.731875  15 14.4  L 15 1.95  Z M 13.65 6.525  L 13.65 13.65  L 1.35 13.65  L 1.35 6.525  L 13.65 6.525  Z M 13.65 5.25  L 1.35 5.25  L 1.35 2.7  L 3.75 2.7  L 3.75 3.6  C 3.75 3.6825  3.8175 3.75  3.9 3.75  L 4.95 3.75  C 5.0325 3.75  5.1 3.6825  5.1 3.6  L 5.1 2.7  L 9.9 2.7  L 9.9 3.6  C 9.9 3.6825  9.9675 3.75  10.05 3.75  L 11.1 3.75  C 11.1825 3.75  11.25 3.6825  11.25 3.6  L 11.25 2.7  L 13.65 2.7  L 13.65 5.25  Z " fill-rule="nonzero" fill="#555555" stroke="none" transform="matrix(1 0 0 1 1089 50 )" />
  </g>
</svg>