<?xml version="1.0" encoding="utf-8"?>
<svg version="1.1" xmlns:xlink="http://www.w3.org/1999/xlink" width="11px" height="13px" xmlns="http://www.w3.org/2000/svg">
  <g transform="matrix(1 0 0 1 -1205 -374 )">
    <path d="M 7.9468791500664 2.68348623853211  L 2.33731739707835 2.68348623853211  C 2.2730411686587 2.68348623853211  2.22045152722444 2.73715596330275  2.22045152722444 2.80275229357798  L 2.22045152722444 3.51834862385321  C 2.22045152722444 3.58394495412844  2.2730411686587 3.63761467889908  2.33731739707835 3.63761467889908  L 7.9468791500664 3.63761467889908  C 8.01115537848606 3.63761467889908  8.06374501992032 3.58394495412844  8.06374501992032 3.51834862385321  L 8.06374501992032 2.80275229357798  C 8.06374501992032 2.73715596330275  8.01115537848606 2.68348623853211  7.9468791500664 2.68348623853211  Z M 5.02523240371846 5.78440366972477  C 5.08950863213811 5.78440366972477  5.14209827357238 5.73073394495413  5.14209827357238 5.6651376146789  L 5.14209827357238 4.94954128440367  C 5.14209827357238 4.88394495412844  5.08950863213811 4.8302752293578  5.02523240371846 4.8302752293578  L 2.33731739707835 4.8302752293578  C 2.2730411686587 4.8302752293578  2.22045152722444 4.88394495412844  2.22045152722444 4.94954128440367  L 2.22045152722444 5.6651376146789  C 2.22045152722444 5.73073394495413  2.2730411686587 5.78440366972477  2.33731739707835 5.78440366972477  L 5.02523240371846 5.78440366972477  Z M 4.55776892430279 11.6880733944954  C 4.55776892430279 11.6224770642202  4.50517928286853 11.5688073394495  4.44090305444887 11.5688073394495  L 1 11.5688073394495  L 1 1.07339449541284  L 9.2324037184595 1.07339449541284  L 9.2324037184595 6.20183486238532  C 9.2324037184595 6.26743119266055  9.28499335989376 6.32110091743119  9.34926958831341 6.32110091743119  L 10.1673306772908 6.32110091743119  C 10.2316069057105 6.32110091743119  10.2841965471448 6.26743119266055  10.2841965471448 6.20183486238532  L 10.2841965471448 0.477064220183486  C 10.2841965471448 0.213188073394495  10.0752988047809 0  9.81673306772908 0  L 0.467463479415671 0  C 0.208897742363878 0  0 0.213188073394495  0 0.477064220183486  L 0 12.1651376146789  C 0 12.4290137614679  0.208897742363878 12.6422018348624  0.467463479415671 12.6422018348624  L 4.44090305444887 12.6422018348624  C 4.50517928286853 12.6422018348624  4.55776892430279 12.5885321100917  4.55776892430279 12.5229357798165  L 4.55776892430279 11.6880733944954  Z M 5.84475431606906 9.95871559633028  C 5.90756972111554 9.95871559633028  5.95869853917663 9.90951834862385  5.96162018592297 9.8454128440367  C 5.98791500664011 9.33107798165138  6.19827357237716 8.84954128440367  6.55763612217796 8.48279816513761  C 6.94037184594954 8.09220183486238  7.46334661354582 7.87155963302752  8.00531208499336 7.87155963302752  C 8.55166002656043 7.87155963302752  9.06586985391766 8.08922018348624  9.45298804780877 8.48279816513761  C 9.49973439575033 8.53050458715596  9.54501992031872 8.58119266055046  9.58738379814077 8.63337155963303  L 9.24993359893758 8.90022935779816  C 9.2213236211801 8.92281601137529  9.20457441429847 8.95764971079323  9.20457441429847 8.99456386657392  C 9.20457441429847 9.04955082551042  9.24141129176424 9.09741103512015  9.2937583001328 9.11043577981651  L 10.6567065073041 9.44587155963303  C 10.7297476759628 9.46376146788991  10.7998671978752 9.40711009174312  10.8013280212483 9.33107798165138  L 10.8100929614874 7.90883027522936  C 10.8100965254332 7.90845003174239  10.8100983074367 7.90806977303508  10.8100983074367 7.90768951215334  C 10.8100983074367 7.84182068877903  10.7577756752788 7.78842345710747  10.6932324375828 7.78842345710747  C 10.667314988045 7.78842345710747  10.6421328092112 7.79721575504191  10.6216467463479 7.81341743119266  L 10.3250996015936 8.04896788990826  C 9.77875166002656 7.35871559633028  8.94169986719788 6.91743119266055  8.00531208499336 6.91743119266055  C 6.39986719787517 6.91743119266055  5.08950863213811 8.21295871559633  5.02523240371846 9.83497706422018  C 5.02231075697211 9.90206422018349  5.07636122177955 9.95871559633028  5.14209827357238 9.95871559633028  L 5.84475431606906 9.95871559633028  Z M 10.9853917662683 10.0824541284404  C 10.9883134130146 10.0153669724771  10.9342629482072 9.95871559633028  10.8685258964143 9.95871559633028  L 10.1658698539177 9.95871559633028  C 10.1030544488712 9.95871559633028  10.0519256308101 10.0079128440367  10.0490039840637 10.0720183486239  C 10.0227091633466 10.5863532110092  9.81235059760956 11.0678899082569  9.45298804780877 11.4346330275229  C 9.07025232403718 11.8252293577982  8.5472775564409 12.045871559633  8.00531208499336 12.045871559633  C 7.45896414342629 12.045871559633  6.94475431606906 11.8282110091743  6.55763612217796 11.4346330275229  C 6.51088977423639 11.3869266055046  6.465604249668 11.3362385321101  6.42324037184595 11.2840596330275  L 6.76069057104914 11.0172018348624  C 6.78930054880662 10.9946151812853  6.80604975568825 10.9597814818673  6.80604975568825 10.9228673260866  C 6.80604975568825 10.8678803671501  6.76921287822248 10.8200201575404  6.71686586985392 10.806995412844  L 5.3539176626826 10.4715596330275  C 5.2808764940239 10.4536697247706  5.21075697211155 10.5103211009174  5.20929614873838 10.5863532110092  L 5.20053120849933 12.0086009174312  C 5.20052764455351 12.0089811609182  5.20052586255003 12.0093614196255  5.20052586255003 12.0097416805072  C 5.20052586255003 12.0756105038815  5.25284849470792 12.1290077355531  5.31739173240395 12.1290077355531  C 5.34330918194176 12.1290077355531  5.36849136077551 12.1202154376186  5.38897742363878 12.1040137614679  L 5.68552456839309 11.8684633027523  C 6.23187250996016 12.5587155963303  7.06892430278884 13  8.00531208499336 13  C 9.61075697211155 13  10.9211155378486 11.7044724770642  10.9853917662683 10.0824541284404  Z " fill-rule="nonzero" fill="#ffffff" stroke="none" transform="matrix(1 0 0 1 1205 374 )" />
  </g>
</svg>