<?xml version="1.0" encoding="utf-8"?>
<svg version="1.1" xmlns:xlink="http://www.w3.org/1999/xlink" width="12px" height="12px" viewBox="9 173  12 12" xmlns="http://www.w3.org/2000/svg">
  <path d="M 9.5 175  A 1.5 1.5 0 0 1 11 173.5 L 19 173.5  A 1.5 1.5 0 0 1 20.5 175 L 20.5 183  A 1.5 1.5 0 0 1 19 184.5 L 11 184.5  A 1.5 1.5 0 0 1 9.5 183 L 9.5 175  Z " fill-rule="nonzero" fill="#ffffff" stroke="none" />
  <path d="M 9.5 175  A 1.5 1.5 0 0 1 11 173.5 L 19 173.5  A 1.5 1.5 0 0 1 20.5 175 L 20.5 183  A 1.5 1.5 0 0 1 19 184.5 L 11 184.5  A 1.5 1.5 0 0 1 9.5 183 L 9.5 175  Z " stroke-width="1" stroke="#797979" fill="none" />
</svg>