<?xml version="1.0" encoding="utf-8"?>
<svg version="1.1" xmlns:xlink="http://www.w3.org/1999/xlink" width="12px" height="12px" viewBox="9 203  12 12" xmlns="http://www.w3.org/2000/svg">
  <path d="M 9.5 205  A 1.5 1.5 0 0 1 11 203.5 L 19 203.5  A 1.5 1.5 0 0 1 20.5 205 L 20.5 213  A 1.5 1.5 0 0 1 19 214.5 L 11 214.5  A 1.5 1.5 0 0 1 9.5 213 L 9.5 205  Z " fill-rule="nonzero" fill="#ffffff" stroke="none" />
  <path d="M 9.5 205  A 1.5 1.5 0 0 1 11 203.5 L 19 203.5  A 1.5 1.5 0 0 1 20.5 205 L 20.5 213  A 1.5 1.5 0 0 1 19 214.5 L 11 214.5  A 1.5 1.5 0 0 1 9.5 213 L 9.5 205  Z " stroke-width="1" stroke="#797979" fill="none" />
  <path d="M 11.5714285714286 209  L 14.1428571428571 211.571428571429  " stroke-width="2.57142857142857" stroke="#797979" fill="none" />
  <path d="M 14.1428571428571 211.571428571429  L 18.4285714285714 205.571428571429  " stroke-width="2.57142857142857" stroke="#797979" fill="none" />
</svg>