<?xml version="1.0" encoding="utf-8"?>
<svg version="1.1" xmlns:xlink="http://www.w3.org/1999/xlink" width="12px" height="12px" viewBox="9 293  12 12" xmlns="http://www.w3.org/2000/svg">
  <path d="M 9.5 295  A 1.5 1.5 0 0 1 11 293.5 L 19 293.5  A 1.5 1.5 0 0 1 20.5 295 L 20.5 303  A 1.5 1.5 0 0 1 19 304.5 L 11 304.5  A 1.5 1.5 0 0 1 9.5 303 L 9.5 295  Z " fill-rule="nonzero" fill="#f0f0f0" stroke="none" />
  <path d="M 9.5 295  A 1.5 1.5 0 0 1 11 293.5 L 19 293.5  A 1.5 1.5 0 0 1 20.5 295 L 20.5 303  A 1.5 1.5 0 0 1 19 304.5 L 11 304.5  A 1.5 1.5 0 0 1 9.5 303 L 9.5 295  Z " stroke-width="1" stroke="#797979" fill="none" />
</svg>