<?xml version="1.0" encoding="utf-8"?>
<svg version="1.1" xmlns:xlink="http://www.w3.org/1999/xlink" width="12px" height="12px" viewBox="9 323  12 12" xmlns="http://www.w3.org/2000/svg">
  <path d="M 9.5 325  A 1.5 1.5 0 0 1 11 323.5 L 19 323.5  A 1.5 1.5 0 0 1 20.5 325 L 20.5 333  A 1.5 1.5 0 0 1 19 334.5 L 11 334.5  A 1.5 1.5 0 0 1 9.5 333 L 9.5 325  Z " fill-rule="nonzero" fill="#ffffff" stroke="none" />
  <path d="M 9.5 325  A 1.5 1.5 0 0 1 11 323.5 L 19 323.5  A 1.5 1.5 0 0 1 20.5 325 L 20.5 333  A 1.5 1.5 0 0 1 19 334.5 L 11 334.5  A 1.5 1.5 0 0 1 9.5 333 L 9.5 325  Z " stroke-width="1" stroke="#797979" fill="none" />
  <path d="M 11.5714285714286 329  L 14.1428571428571 331.571428571429  " stroke-width="2.57142857142857" stroke="#797979" fill="none" />
  <path d="M 14.1428571428571 331.571428571429  L 18.4285714285714 325.571428571429  " stroke-width="2.57142857142857" stroke="#797979" fill="none" />
</svg>