<?xml version="1.0" encoding="utf-8"?>
<svg version="1.1" xmlns:xlink="http://www.w3.org/1999/xlink" width="12px" height="12px" viewBox="10 353  12 12" xmlns="http://www.w3.org/2000/svg">
  <path d="M 10.5 355  A 1.5 1.5 0 0 1 12 353.5 L 20 353.5  A 1.5 1.5 0 0 1 21.5 355 L 21.5 363  A 1.5 1.5 0 0 1 20 364.5 L 12 364.5  A 1.5 1.5 0 0 1 10.5 363 L 10.5 355  Z " fill-rule="nonzero" fill="#ffffff" stroke="none" />
  <path d="M 10.5 355  A 1.5 1.5 0 0 1 12 353.5 L 20 353.5  A 1.5 1.5 0 0 1 21.5 355 L 21.5 363  A 1.5 1.5 0 0 1 20 364.5 L 12 364.5  A 1.5 1.5 0 0 1 10.5 363 L 10.5 355  Z " stroke-width="1" stroke="#797979" fill="none" />
  <path d="M 12.5714285714286 359  L 15.1428571428571 361.571428571429  " stroke-width="2.57142857142857" stroke="#797979" fill="none" />
  <path d="M 15.1428571428571 361.571428571429  L 19.4285714285714 355.571428571429  " stroke-width="2.57142857142857" stroke="#797979" fill="none" />
</svg>