<?xml version="1.0" encoding="utf-8"?>
<svg version="1.1" xmlns:xlink="http://www.w3.org/1999/xlink" width="10px" height="10px" xmlns="http://www.w3.org/2000/svg">
  <g transform="matrix(1 0 0 1 -1201 -267 )">
    <path d="M 3.02083333333333 1.8  L 3.02083333333333 0.9  L 2.91666666666667 0.9  C 2.97395833333333 0.9  3.02083333333333 0.855  3.02083333333333 0.8  L 3.02083333333333 0.9  L 6.97916666666667 0.9  L 6.97916666666667 0.8  C 6.97916666666667 0.855  7.02604166666667 0.9  7.08333333333333 0.9  L 6.97916666666667 0.9  L 6.97916666666667 1.8  L 7.91666666666667 1.8  L 7.91666666666667 0.8  C 7.91666666666667 0.35875  7.54296875 0  7.08333333333333 0  L 2.91666666666667 0  C 2.45703125 0  2.08333333333333 0.35875  2.08333333333333 0.8  L 2.08333333333333 1.8  L 3.02083333333333 1.8  Z M 10 2.2  C 10 1.97875  9.81380208333333 1.8  9.58333333333333 1.8  L 0.416666666666667 1.8  C 0.186197916666667 1.8  0 1.97875  0 2.2  L 0 2.6  C 0 2.655  0.0468749999999999 2.7  0.104166666666667 2.7  L 0.890625 2.7  L 1.21223958333333 9.2375  C 1.23307291666667 9.66375  1.60026041666667 10  2.04427083333333 10  L 7.95572916666667 10  C 8.40104166666667 10  8.76692708333333 9.665  8.78776041666667 9.2375  L 9.109375 2.7  L 9.89583333333333 2.7  C 9.953125 2.7  10 2.655  10 2.6  L 10 2.2  Z M 8.17057291666667 2.7  L 7.85546875 9.1  L 2.14453125 9.1  L 1.82942708333333 2.7  L 8.17057291666667 2.7  Z " fill-rule="nonzero" fill="#ffffff" stroke="none" transform="matrix(1 0 0 1 1201 267 )" />
  </g>
</svg>