<?xml version="1.0" encoding="utf-8"?>
<svg version="1.1" xmlns:xlink="http://www.w3.org/1999/xlink" width="21px" height="18px" xmlns="http://www.w3.org/2000/svg">
  <g transform="matrix(1 0 0 1 -539 -349 )">
    <path d="M 20.228285077951 18  C 20.8035634743875 18  21.1636971046771 17.3892857142857  20.8760579064588 16.8979591836735  L 11.1477728285078 0.367346938775511  C 11.0027839643653 0.121683673469388  10.752561247216 0  10.5 0  C 10.247438752784 0  9.99487750556793 0.121683673469388  9.85222717149221 0.367346938775511  L 0.123942093541203 16.8979591836735  C -0.16369710467706 17.3892857142857  0.196436525612472 18  0.771714922048998 18  L 20.228285077951 18  Z M 9.75167037861915 11.0204081632653  L 9.75167037861915 6.79591836734694  C 9.75167037861915 6.69489795918367  9.8358574610245 6.61224489795918  9.93875278396436 6.61224489795918  L 11.0612472160356 6.61224489795918  C 11.1641425389755 6.61224489795918  11.2483296213808 6.69489795918367  11.2483296213808 6.79591836734694  L 11.2483296213808 11.0204081632653  C 11.2483296213808 11.1214285714286  11.1641425389755 11.2040816326531  11.0612472160356 11.2040816326531  L 9.93875278396436 11.2040816326531  C 9.8358574610245 11.2040816326531  9.75167037861915 11.1214285714286  9.75167037861915 11.0204081632653  Z M 11.5998142700854 13.7755102040816  C 11.5998142700854 14.3755097615696  11.1110081133791 14.8653054940074  10.5 14.8775510204082  C 9.8889918866209 14.8653054940074  9.40018572991455 14.3755097615696  9.40018572991455 13.7755102040816  C 9.40018572991455 13.1755106465937  9.8889918866209 12.6857149141558  10.5 12.6734693877551  C 11.1110081133791 12.6857149141558  11.5998142700854 13.1755106465937  11.5998142700854 13.7755102040816  Z " fill-rule="nonzero" fill="#f67263" stroke="none" transform="matrix(1 0 0 1 539 349 )" />
  </g>
</svg>