<?xml version="1.0" encoding="utf-8"?>
<svg version="1.1" xmlns:xlink="http://www.w3.org/1999/xlink" width="12px" height="12px" viewBox="73 530  12 12" xmlns="http://www.w3.org/2000/svg">
  <path d="M 73.5 532  A 1.5 1.5 0 0 1 75 530.5 L 83 530.5  A 1.5 1.5 0 0 1 84.5 532 L 84.5 540  A 1.5 1.5 0 0 1 83 541.5 L 75 541.5  A 1.5 1.5 0 0 1 73.5 540 L 73.5 532  Z " fill-rule="nonzero" fill="#f0f0f0" stroke="none" />
  <path d="M 73.5 532  A 1.5 1.5 0 0 1 75 530.5 L 83 530.5  A 1.5 1.5 0 0 1 84.5 532 L 84.5 540  A 1.5 1.5 0 0 1 83 541.5 L 75 541.5  A 1.5 1.5 0 0 1 73.5 540 L 73.5 532  Z " stroke-width="1" stroke="#797979" fill="none" />
</svg>