<?xml version="1.0" encoding="utf-8"?>
<svg version="1.1" xmlns:xlink="http://www.w3.org/1999/xlink" width="12px" height="12px" viewBox="73 590  12 12" xmlns="http://www.w3.org/2000/svg">
  <path d="M 73.5 592  A 1.5 1.5 0 0 1 75 590.5 L 83 590.5  A 1.5 1.5 0 0 1 84.5 592 L 84.5 600  A 1.5 1.5 0 0 1 83 601.5 L 75 601.5  A 1.5 1.5 0 0 1 73.5 600 L 73.5 592  Z " fill-rule="nonzero" fill="#ffffff" stroke="none" />
  <path d="M 73.5 592  A 1.5 1.5 0 0 1 75 590.5 L 83 590.5  A 1.5 1.5 0 0 1 84.5 592 L 84.5 600  A 1.5 1.5 0 0 1 83 601.5 L 75 601.5  A 1.5 1.5 0 0 1 73.5 600 L 73.5 592  Z " stroke-width="1" stroke="#797979" fill="none" />
</svg>