<?xml version="1.0" encoding="utf-8"?>
<svg version="1.1" xmlns:xlink="http://www.w3.org/1999/xlink" width="12px" height="12px" viewBox="73 560  12 12" xmlns="http://www.w3.org/2000/svg">
  <path d="M 73.5 562  A 1.5 1.5 0 0 1 75 560.5 L 83 560.5  A 1.5 1.5 0 0 1 84.5 562 L 84.5 570  A 1.5 1.5 0 0 1 83 571.5 L 75 571.5  A 1.5 1.5 0 0 1 73.5 570 L 73.5 562  Z " fill-rule="nonzero" fill="#ffffff" stroke="none" />
  <path d="M 73.5 562  A 1.5 1.5 0 0 1 75 560.5 L 83 560.5  A 1.5 1.5 0 0 1 84.5 562 L 84.5 570  A 1.5 1.5 0 0 1 83 571.5 L 75 571.5  A 1.5 1.5 0 0 1 73.5 570 L 73.5 562  Z " stroke-width="1" stroke="#797979" fill="none" />
  <path d="M 75.5714285714286 566  L 78.1428571428571 568.571428571429  " stroke-width="2.57142857142857" stroke="#797979" fill="none" />
  <path d="M 78.1428571428571 568.571428571429  L 82.4285714285714 562.571428571429  " stroke-width="2.57142857142857" stroke="#797979" fill="none" />
</svg>