<?xml version="1.0" encoding="utf-8"?>
<svg version="1.1" xmlns:xlink="http://www.w3.org/1999/xlink" width="12px" height="12px" viewBox="74 710  12 12" xmlns="http://www.w3.org/2000/svg">
  <path d="M 74.5 712  A 1.5 1.5 0 0 1 76 710.5 L 84 710.5  A 1.5 1.5 0 0 1 85.5 712 L 85.5 720  A 1.5 1.5 0 0 1 84 721.5 L 76 721.5  A 1.5 1.5 0 0 1 74.5 720 L 74.5 712  Z " fill-rule="nonzero" fill="#ffffff" stroke="none" />
  <path d="M 74.5 712  A 1.5 1.5 0 0 1 76 710.5 L 84 710.5  A 1.5 1.5 0 0 1 85.5 712 L 85.5 720  A 1.5 1.5 0 0 1 84 721.5 L 76 721.5  A 1.5 1.5 0 0 1 74.5 720 L 74.5 712  Z " stroke-width="1" stroke="#797979" fill="none" />
</svg>