<?xml version="1.0" encoding="utf-8"?>
<svg version="1.1" xmlns:xlink="http://www.w3.org/1999/xlink" width="16px" height="16px" xmlns="http://www.w3.org/2000/svg">
  <g transform="matrix(1 0 0 1 -778 -50 )">
    <path d="M 15.8125 2.21875  C 15.8125 1.873046875  15.533203125 1.59375  15.1875 1.59375  L 11.90625 1.59375  L 11.90625 0.34375  C 11.90625 0.2578125  11.8359375 0.1875  11.75 0.1875  L 10.65625 0.1875  C 10.5703125 0.1875  10.5 0.2578125  10.5 0.34375  L 10.5 1.59375  L 5.5 1.59375  L 5.5 0.34375  C 5.5 0.2578125  5.4296875 0.1875  5.34375 0.1875  L 4.25 0.1875  C 4.1640625 0.1875  4.09375 0.2578125  4.09375 0.34375  L 4.09375 1.59375  L 0.8125 1.59375  C 0.466796875 1.59375  0.1875 1.873046875  0.1875 2.21875  L 0.1875 15.1875  C 0.1875 15.533203125  0.466796875 15.8125  0.8125 15.8125  L 15.1875 15.8125  C 15.533203125 15.8125  15.8125 15.533203125  15.8125 15.1875  L 15.8125 2.21875  Z M 14.40625 7  L 14.40625 14.40625  L 1.59375 14.40625  L 1.59375 7  L 14.40625 7  Z M 14.40625 5.65625  L 1.59375 5.65625  L 1.59375 3  L 4.09375 3  L 4.09375 3.9375  C 4.09375 4.0234375  4.1640625 4.09375  4.25 4.09375  L 5.34375 4.09375  C 5.4296875 4.09375  5.5 4.0234375  5.5 3.9375  L 5.5 3  L 10.5 3  L 10.5 3.9375  C 10.5 4.0234375  10.5703125 4.09375  10.65625 4.09375  L 11.75 4.09375  C 11.8359375 4.09375  11.90625 4.0234375  11.90625 3.9375  L 11.90625 3  L 14.40625 3  L 14.40625 5.65625  Z " fill-rule="nonzero" fill="#aaaaaa" stroke="none" transform="matrix(1 0 0 1 778 50 )" />
  </g>
</svg>