<?xml version="1.0" encoding="utf-8"?>
<svg version="1.1" xmlns:xlink="http://www.w3.org/1999/xlink" width="15px" height="15px" viewBox="607 373  15 15" xmlns="http://www.w3.org/2000/svg">
  <path d="M 614.5 373  C 618.7 373  622 376.3  622 380.5  C 622 384.7  618.7 388  614.5 388  C 610.3 388  607 384.7  607 380.5  C 607 376.3  610.3 373  614.5 373  Z " fill-rule="nonzero" fill="#ffffff" stroke="none" />
  <path d="M 614.5 373.5  C 618.42 373.5  621.5 376.58  621.5 380.5  C 621.5 384.42  618.42 387.5  614.5 387.5  C 610.58 387.5  607.5 384.42  607.5 380.5  C 607.5 376.58  610.58 373.5  614.5 373.5  Z " stroke-width="1" stroke="#797979" fill="none" />
  <path d="M 614.5 384.25  C 612.4 384.25  610.75 382.6  610.75 380.5  C 610.75 378.4  612.4 376.75  614.5 376.75  C 616.6 376.75  618.25 378.4  618.25 380.5  C 618.25 382.6  616.6 384.25  614.5 384.25  " fill-rule="nonzero" fill="#797979" stroke="none" />
</svg>