<?xml version="1.0" encoding="utf-8"?>
<svg version="1.1" xmlns:xlink="http://www.w3.org/1999/xlink" width="15px" height="15px" viewBox="506 373  15 15" xmlns="http://www.w3.org/2000/svg">
  <path d="M 513.5 373  C 517.7 373  521 376.3  521 380.5  C 521 384.7  517.7 388  513.5 388  C 509.3 388  506 384.7  506 380.5  C 506 376.3  509.3 373  513.5 373  Z " fill-rule="nonzero" fill="#ffffff" stroke="none" />
  <path d="M 513.5 373.5  C 517.42 373.5  520.5 376.58  520.5 380.5  C 520.5 384.42  517.42 387.5  513.5 387.5  C 509.58 387.5  506.5 384.42  506.5 380.5  C 506.5 376.58  509.58 373.5  513.5 373.5  Z " stroke-width="1" stroke="#797979" fill="none" />
  <path d="M 513.5 384.25  C 511.4 384.25  509.75 382.6  509.75 380.5  C 509.75 378.4  511.4 376.75  513.5 376.75  C 515.6 376.75  517.25 378.4  517.25 380.5  C 517.25 382.6  515.6 384.25  513.5 384.25  " fill-rule="nonzero" fill="#797979" stroke="none" />
</svg>