<?xml version="1.0" encoding="utf-8"?>
<svg version="1.1" xmlns:xlink="http://www.w3.org/1999/xlink" width="6px" height="10px" xmlns="http://www.w3.org/2000/svg">
  <g transform="matrix(1 0 0 1 -349 -303 )">
    <path d="M 5.888671875 6.04403409090909  C 5.962890625 6.13399621212121  6 6.2405303030303  6 6.36363636363636  C 6 6.48674242424242  5.962890625 6.59327651515151  5.888671875 6.68323863636364  L 3.263671875 9.86505681818182  C 3.189453125 9.95501893939394  3.1015625 10  3 10  C 2.8984375 10  2.810546875 9.95501893939394  2.736328125 9.86505681818182  L 0.111328125 6.68323863636364  C 0.037109375 6.59327651515151  0 6.48674242424242  0 6.36363636363636  C 0 6.2405303030303  0.037109375 6.13399621212121  0.111328125 6.04403409090909  C 0.185546875 5.95407196969697  0.2734375 5.90909090909091  0.375 5.90909090909091  L 5.625 5.90909090909091  C 5.7265625 5.90909090909091  5.814453125 5.95407196969697  5.888671875 6.04403409090909  Z M 5.888671875 3.31676136363636  C 5.962890625 3.40672348484848  6 3.51325757575757  6 3.63636363636364  C 6 3.7594696969697  5.962890625 3.86600378787879  5.888671875 3.95596590909091  C 5.814453125 4.04592803030303  5.7265625 4.09090909090909  5.625 4.09090909090909  L 0.375 4.09090909090909  C 0.2734375 4.09090909090909  0.185546875 4.04592803030303  0.111328125 3.95596590909091  C 0.037109375 3.86600378787879  0 3.7594696969697  0 3.63636363636364  C 0 3.51325757575757  0.037109375 3.40672348484848  0.111328125 3.31676136363636  L 2.736328125 0.134943181818182  C 2.810546875 0.0449810606060597  2.8984375 0  3 0  C 3.1015625 0  3.189453125 0.0449810606060597  3.263671875 0.134943181818182  L 5.888671875 3.31676136363636  Z " fill-rule="nonzero" fill="#ffffff" stroke="none" transform="matrix(1 0 0 1 349 303 )" />
  </g>
</svg>