<?xml version="1.0" encoding="utf-8"?>
<svg version="1.1" xmlns:xlink="http://www.w3.org/1999/xlink" width="20px" height="20px" xmlns="http://www.w3.org/2000/svg">
  <g transform="matrix(1 0 0 1 -1230 -328 )">
    <path d="M 3.0595703125 15.7425130208333  C 3.22428385416667 15.9022352430556  3.43142361111111 15.9895833333333  3.65353732638889 15.9895833333333  C 3.70345052083333 15.9895833333333  3.75336371527778 15.9845920138889  3.80327690972222 15.9771050347222  L 8.0009765625 15.2408854166667  C 8.05088975694444 15.2309027777778  8.09830729166667 15.2084418402778  8.13324652777778 15.1710069444444  L 18.7123480902778 4.59190538194445  C 18.7590738503344 4.5452753289748  18.7853321694637 4.48197393467166  18.7853321694637 4.41596137152778  C 18.7853321694637 4.3499488083839  18.7590738503344 4.28664741408076  18.7123480902778 4.24001736111111  L 14.5645616319444 0.0897352430555557  C 14.5171440972222 0.0423177083333333  14.4547526041667 0.0173611111111111  14.3873697916667 0.0173611111111111  C 14.3199869791667 0.0173611111111111  14.2575954861111 0.0423177083333333  14.2101779513889 0.0897352430555557  L 3.63107638888889 10.6688368055556  C 3.59364149305556 10.7062717013889  3.57118055555556 10.7511935763889  3.56119791666667 10.8011067708333  L 2.82497829861111 14.9988064236111  C 2.77568976217387 15.2702297506545  2.86346496473177 15.548495818338  3.0595703125 15.7425130208333  Z M 4.9462890625 13.8582899305556  L 5.33561197916667 11.6371527777778  L 14.3873697916667 2.587890625  L 16.2166883680556 4.41720920138889  L 7.16493055555555 13.4664713541667  L 4.9462890625 13.8582899305556  Z M 19.9826388888889 18.8845486111111  C 19.9826388888889 18.4428168402778  19.6257595486111 18.0859375  19.1840277777778 18  L 0.815972222222222 18  C 0.374240451388889 18.0859375  0.0173611111111111 18.4428168402778  0.0173611111111111 18.8845486111111  L 0.0173611111111111 19.7829861111111  C 0.0173611111111111 19.8927951388889  0.107204861111111 19.9826388888889  0.217013888888889 20  L 19.7829861111111 20  C 19.8927951388889 19.9826388888889  19.9826388888889 19.8927951388889  19.9826388888889 19.7829861111111  L 19.9826388888889 18.8845486111111  Z " fill-rule="nonzero" fill="#026d93" stroke="none" transform="matrix(1 0 0 1 1230 328 )" />
  </g>
</svg>