<?xml version="1.0" encoding="utf-8"?>
<svg version="1.1" xmlns:xlink="http://www.w3.org/1999/xlink" width="15px" height="15px" viewBox="502 371  15 15" xmlns="http://www.w3.org/2000/svg">
  <path d="M 509.5 371  C 513.7 371  517 374.3  517 378.5  C 517 382.7  513.7 386  509.5 386  C 505.3 386  502 382.7  502 378.5  C 502 374.3  505.3 371  509.5 371  Z " fill-rule="nonzero" fill="#ffffff" stroke="none" />
  <path d="M 509.5 371.5  C 513.42 371.5  516.5 374.58  516.5 378.5  C 516.5 382.42  513.42 385.5  509.5 385.5  C 505.58 385.5  502.5 382.42  502.5 378.5  C 502.5 374.58  505.58 371.5  509.5 371.5  Z " stroke-width="1" stroke="#797979" fill="none" />
  <path d="M 509.5 382.25  C 507.4 382.25  505.75 380.6  505.75 378.5  C 505.75 376.4  507.4 374.75  509.5 374.75  C 511.6 374.75  513.25 376.4  513.25 378.5  C 513.25 380.6  511.6 382.25  509.5 382.25  " fill-rule="nonzero" fill="#797979" stroke="none" />
</svg>