<?xml version="1.0" encoding="utf-8"?>
<svg version="1.1" xmlns:xlink="http://www.w3.org/1999/xlink" width="15px" height="15px" viewBox="600 371  15 15" xmlns="http://www.w3.org/2000/svg">
  <path d="M 607.5 371  C 611.7 371  615 374.3  615 378.5  C 615 382.7  611.7 386  607.5 386  C 603.3 386  600 382.7  600 378.5  C 600 374.3  603.3 371  607.5 371  Z " fill-rule="nonzero" fill="#ffffff" stroke="none" />
  <path d="M 607.5 371.5  C 611.42 371.5  614.5 374.58  614.5 378.5  C 614.5 382.42  611.42 385.5  607.5 385.5  C 603.58 385.5  600.5 382.42  600.5 378.5  C 600.5 374.58  603.58 371.5  607.5 371.5  Z " stroke-width="1" stroke="#797979" fill="none" />
  <path d="M 607.5 382.25  C 605.4 382.25  603.75 380.6  603.75 378.5  C 603.75 376.4  605.4 374.75  607.5 374.75  C 609.6 374.75  611.25 376.4  611.25 378.5  C 611.25 380.6  609.6 382.25  607.5 382.25  " fill-rule="nonzero" fill="#797979" stroke="none" />
</svg>