<?xml version="1.0" encoding="utf-8"?>
<svg version="1.1" xmlns:xlink="http://www.w3.org/1999/xlink" width="95px" height="39px" xmlns="http://www.w3.org/2000/svg">
  <defs>
    <mask fill="white" id="clip1">
      <path d="M 0 31  L 0 2  C 0 0.879999999999995  0.879999999999995 0  2 0  L 27 0  L 87 0  C 88.12 0  89 0.879999999999995  89 2  L 89 31  C 89 32.12  88.12 33  87 33  L 2 33  C 0.879999999999995 33  0 32.12  0 31  Z " fill-rule="evenodd" />
    </mask>
    <filter x="644px" y="502px" width="95px" height="39px" filterUnits="userSpaceOnUse" id="filter2">
      <feOffset dx="2" dy="2" in="SourceAlpha" result="shadowOffsetInner" />
      <feGaussianBlur stdDeviation="1.5" in="shadowOffsetInner" result="shadowGaussian" />
      <feComposite in2="shadowGaussian" operator="atop" in="SourceAlpha" result="shadowComposite" />
      <feColorMatrix type="matrix" values="0 0 0 0 0  0 0 0 0 0  0 0 0 0 0  0 0 0 0.0470588235294118 0  " in="shadowComposite" />
    </filter>
    <g id="widget3">
      <path d="M 0 31  L 0 2  C 0 0.879999999999995  0.879999999999995 0  2 0  L 27 0  L 87 0  C 88.12 0  89 0.879999999999995  89 2  L 89 31  C 89 32.12  88.12 33  87 33  L 2 33  C 0.879999999999995 33  0 32.12  0 31  Z " fill-rule="nonzero" fill="#026d93" stroke="none" transform="matrix(1 0 0 1 645 503 )" />
      <path d="M 0 31  L 0 2  C 0 0.879999999999995  0.879999999999995 0  2 0  L 27 0  L 87 0  C 88.12 0  89 0.879999999999995  89 2  L 89 31  C 89 32.12  88.12 33  87 33  L 2 33  C 0.879999999999995 33  0 32.12  0 31  Z " stroke-width="2" stroke="#026d93" fill="none" transform="matrix(1 0 0 1 645 503 )" mask="url(#clip1)" />
    </g>
  </defs>
  <g transform="matrix(1 0 0 1 -644 -502 )">
    <use xlink:href="#widget3" filter="url(#filter2)" />
    <use xlink:href="#widget3" />
  </g>
</svg>