<?xml version="1.0" encoding="utf-8"?>
<svg version="1.1" xmlns:xlink="http://www.w3.org/1999/xlink" width="15px" height="15px" viewBox="600 375  15 15" xmlns="http://www.w3.org/2000/svg">
  <path d="M 607.5 375  C 611.7 375  615 378.3  615 382.5  C 615 386.7  611.7 390  607.5 390  C 603.3 390  600 386.7  600 382.5  C 600 378.3  603.3 375  607.5 375  Z " fill-rule="nonzero" fill="#ffffff" stroke="none" />
  <path d="M 607.5 375.5  C 611.42 375.5  614.5 378.58  614.5 382.5  C 614.5 386.42  611.42 389.5  607.5 389.5  C 603.58 389.5  600.5 386.42  600.5 382.5  C 600.5 378.58  603.58 375.5  607.5 375.5  Z " stroke-width="1" stroke="#797979" fill="none" />
  <path d="M 607.5 386.25  C 605.4 386.25  603.75 384.6  603.75 382.5  C 603.75 380.4  605.4 378.75  607.5 378.75  C 609.6 378.75  611.25 380.4  611.25 382.5  C 611.25 384.6  609.6 386.25  607.5 386.25  " fill-rule="nonzero" fill="#797979" stroke="none" />
</svg>