<?xml version="1.0" encoding="utf-8"?>
<svg version="1.1" xmlns:xlink="http://www.w3.org/1999/xlink" width="15px" height="15px" viewBox="607 376  15 15" xmlns="http://www.w3.org/2000/svg">
  <path d="M 614.5 376  C 618.7 376  622 379.3  622 383.5  C 622 387.7  618.7 391  614.5 391  C 610.3 391  607 387.7  607 383.5  C 607 379.3  610.3 376  614.5 376  Z " fill-rule="nonzero" fill="#ffffff" stroke="none" />
  <path d="M 614.5 376.5  C 618.42 376.5  621.5 379.58  621.5 383.5  C 621.5 387.42  618.42 390.5  614.5 390.5  C 610.58 390.5  607.5 387.42  607.5 383.5  C 607.5 379.58  610.58 376.5  614.5 376.5  Z " stroke-width="1" stroke="#797979" fill="none" />
  <path d="M 614.5 387.25  C 612.4 387.25  610.75 385.6  610.75 383.5  C 610.75 381.4  612.4 379.75  614.5 379.75  C 616.6 379.75  618.25 381.4  618.25 383.5  C 618.25 385.6  616.6 387.25  614.5 387.25  " fill-rule="nonzero" fill="#797979" stroke="none" />
</svg>