<?xml version="1.0" encoding="utf-8"?>
<svg version="1.1" xmlns:xlink="http://www.w3.org/1999/xlink" width="15px" height="15px" viewBox="506 376  15 15" xmlns="http://www.w3.org/2000/svg">
  <path d="M 513.5 376  C 517.7 376  521 379.3  521 383.5  C 521 387.7  517.7 391  513.5 391  C 509.3 391  506 387.7  506 383.5  C 506 379.3  509.3 376  513.5 376  Z " fill-rule="nonzero" fill="#ffffff" stroke="none" />
  <path d="M 513.5 376.5  C 517.42 376.5  520.5 379.58  520.5 383.5  C 520.5 387.42  517.42 390.5  513.5 390.5  C 509.58 390.5  506.5 387.42  506.5 383.5  C 506.5 379.58  509.58 376.5  513.5 376.5  Z " stroke-width="1" stroke="#797979" fill="none" />
  <path d="M 513.5 387.25  C 511.4 387.25  509.75 385.6  509.75 383.5  C 509.75 381.4  511.4 379.75  513.5 379.75  C 515.6 379.75  517.25 381.4  517.25 383.5  C 517.25 385.6  515.6 387.25  513.5 387.25  " fill-rule="nonzero" fill="#797979" stroke="none" />
</svg>