<?xml version="1.0" encoding="utf-8"?>
<svg version="1.1" xmlns:xlink="http://www.w3.org/1999/xlink" width="17px" height="15px" xmlns="http://www.w3.org/2000/svg">
  <g transform="matrix(1 0 0 1 -128 -421 )">
    <path d="M 17 7.5  C 17 3.35825892857143  13.1939732142857 0  8.5 0  C 3.80602678571429 0  0 3.35825892857143  0 7.5  C 0 11.6417410714286  3.80602678571429 15  8.5 15  C 13.1939732142857 15  17 11.6417410714286  17 7.5  Z M 7.89285714285714 8.4375  L 7.89285714285714 3.88392857142857  C 7.89285714285714 3.81026785714286  7.96116071428571 3.75  8.04464285714286 3.75  L 8.95535714285714 3.75  C 9.03883928571429 3.75  9.10714285714286 3.81026785714286  9.10714285714286 3.88392857142857  L 9.10714285714286 8.4375  C 9.10714285714286 8.51116071428571  9.03883928571429 8.57142857142857  8.95535714285714 8.57142857142857  L 8.04464285714286 8.57142857142857  C 7.96116071428571 8.57142857142857  7.89285714285714 8.51116071428571  7.89285714285714 8.4375  Z M 9.39231317214739 10.4464285714286  C 9.39231317214739 10.8839282487635  8.99572969062743 11.2410709703328  8.5 11.25  C 8.00427030937257 11.2410709703328  7.60768682785261 10.8839282487635  7.60768682785261 10.4464285714286  C 7.60768682785261 10.0089288940936  8.00427030937257 9.65178617252433  8.5 9.64285714285714  C 8.99572969062743 9.65178617252433  9.39231317214739 10.0089288940936  9.39231317214739 10.4464285714286  Z " fill-rule="nonzero" fill="#026d93" stroke="none" transform="matrix(1 0 0 1 128 421 )" />
  </g>
</svg>