<?xml version="1.0" encoding="utf-8"?>
<svg version="1.1" xmlns:xlink="http://www.w3.org/1999/xlink" width="20px" height="20px" xmlns="http://www.w3.org/2000/svg">
  <g transform="matrix(1 0 0 1 -538 -347 )">
    <path d="M 20 0.8  C 20 0.3575  19.6425 0  19.2 0  L 0.8 0  C 0.3575 0  0 0.3575  0 0.8  L 0 19.2  C 0 19.6425  0.3575 20  0.8 20  L 19.2 20  C 19.6425 20  20 19.6425  20 19.2  L 20 0.8  Z M 14.425 6.025  C 14.5875 6.025  14.6825 6.21  14.5875 6.3425  L 9.3225 13.6425  C 9.17320371813686 13.8508777770708  8.93259094045843 13.9744817093246  8.67625 13.9744817093246  C 8.41990905954157 13.9744817093246  8.17929628186313 13.8508777770708  8.03 13.6425  L 4.9125 9.3225  C 4.8175 9.19  4.9125 9.005  5.075 9.005  L 6.2475 9.005  C 6.5025 9.005  6.745 9.1275  6.895 9.3375  L 8.675 11.8075  L 12.605 6.3575  C 12.755 6.15  12.995 6.025  13.2525 6.025  L 14.425 6.025  Z " fill-rule="nonzero" fill="#a0cd56" stroke="none" transform="matrix(1 0 0 1 538 347 )" />
  </g>
</svg>