<?xml version="1.0" encoding="utf-8"?>
<svg version="1.1" xmlns:xlink="http://www.w3.org/1999/xlink" width="74px" height="49px" xmlns="http://www.w3.org/2000/svg">
  <g transform="matrix(1 0 0 1 -603 -154 )">
    <path d="M 73.7279411764706 32.5607311320755  C 73.7279411764706 25.0281729068396  68.554876247374 18.6900980247642  61.5454142594538 16.8536814563679  C 57.7906381302521 7.03779112617925  48.2233373818277 0.0577830188679245  37.0163964023109 0.0577830188679245  C 25.8094554227941 0.0577830188679245  16.2421546743697 7.02966538915094  12.4873785451681 16.8455557193396  C 5.46152015493697 18.6738465507075  0.272058823529412 25.0200471698113  0.272058823529412 32.5607311320755  C 0.272058823529412 41.5396705483491  7.60944885766807 48.8122051886792  16.6602629332983 48.8122051886792  L 19.9477415966387 48.8122051886792  C 20.308462447479 48.8122051886792  20.6035976890756 48.5196786556604  20.6035976890756 48.1621462264151  L 20.6035976890756 43.286704009434  C 20.6035976890756 42.9291715801887  20.308462447479 42.6366450471698  19.9477415966387 42.6366450471698  L 16.6602629332983 42.6366450471698  C 13.8974691439076 42.6366450471698  11.298639377626 41.5477962853774  9.36386390493697 39.5732421875  C 7.43728663340336 37.6068138266509  6.41251148897059 34.9578235554245  6.50269170168067 32.2113244398585  C 6.57647551207983 30.0661298643868  7.31431361607143 28.0509470813679  8.65062040441176 26.3526680424528  C 10.0197199973739 24.6218860554245  11.9380990677521 23.3623968160377  14.0696313681723 22.8017209610849  L 17.1767496060924 21.997272995283  L 18.3162995667017 19.0232532429245  C 19.0213448660714 17.1705852004717  20.0051290047269 15.4398032134434  21.2430573792017 13.8715359669811  C 22.4651774283993 12.3171451069707  23.912837626069 10.9507380835984  25.5389147846639 9.81679318985849  C 28.9083754595588 7.46845518867924  32.8763048188025 6.22521742334905  37.0163964023109 6.22521742334905  C 41.1564879858193 6.22521742334905  45.124417345063 7.46845518867925  48.493878019958 9.81679318985849  C 50.1253200498949 10.9543963738208  51.5682034532563 12.3195201945755  52.7897354254201 13.8715359669811  C 54.0276637998949 15.4398032134434  55.0114479385504 17.1787109375  55.7164932379202 19.0232532429245  L 56.8478449973739 21.9891472582547  L 59.9467650341386 22.8017209610849  C 64.3901900603991 23.988078567217  67.4973082983193 27.9940669221698  67.4973082983193 32.5607311320755  C 67.4973082983193 35.2503500884434  66.4397403492647 37.7855800412736  64.5213612788866 39.6870025058962  C 62.6210719078459 41.5815085966655  60.0350113546646 42.6436574917623  57.3397370667017 42.6366450471698  L 54.0522584033613 42.6366450471698  C 53.691537552521 42.6366450471698  53.3964023109244 42.9291715801887  53.3964023109244 43.286704009434  L 53.3964023109244 48.1621462264151  C 53.3964023109244 48.5196786556604  53.691537552521 48.8122051886792  54.0522584033613 48.8122051886792  L 57.3397370667017 48.8122051886792  C 66.3905511423319 48.8122051886792  73.7279411764706 41.5396705483491  73.7279411764706 32.5607311320755  Z " fill-rule="nonzero" fill="#f2f2f2" stroke="none" transform="matrix(1 0 0 1 603 154 )" />
  </g>
</svg>