<?xml version="1.0" encoding="utf-8"?>
<svg version="1.1" xmlns:xlink="http://www.w3.org/1999/xlink" width="20px" height="34px" xmlns="http://www.w3.org/2000/svg">
  <g transform="matrix(1 0 0 1 -630 -178 )">
    <path d="M 19.7476196289063 12.0933159722222  L 10.5191040039063 0.322808159722222  C 10.3941649406492 0.161983939121871  10.2027196057988 0.0680171081705783  9.99999999999999 0.0680171081705783  C 9.79728039420124 0.0680171081705783  9.60583505935079 0.161983939121875  9.48089599609374 0.322808159722222  L 0.252380371093741 12.0850151909722  C 0.161771179516421 12.2015794017161  0.112536988392242 12.3453634115378  0.112536988392242 12.4934151636889  C 0.112536988392242 12.8592498763942  0.406923975091025 13.1558175074389  0.770068726673494 13.1558175074389  C 0.770540609857835 13.1558175074389  0.771012492909309 13.1558169956997  0.771484374999996 13.1558159722222  L 7 13.1558159722222  L 7 33.2769097222222  C 6.86065673828125 33.6421440972222  7.15728759765625 33.9409722222222  7.51983642578125 33.9409722222222  L 12.4636840820313 33.9409722222222  C 12.8262329101563 33.9409722222222  13.1228637695313 33.6421440972222  13 33.2769097222222  L 13 13.1641167534722  L 19.228515625 13.1641167534722  C 19.7805786132813 13.1641167534722  20.08544921875 12.5249565972222  19.7476196289063 12.0933159722222  Z " fill-rule="nonzero" fill="#f2f2f2" stroke="none" transform="matrix(1 0 0 1 630 178 )" />
  </g>
</svg>