<?xml version="1.0" encoding="utf-8"?>
<svg version="1.1" xmlns:xlink="http://www.w3.org/1999/xlink" width="8px" height="10px" xmlns="http://www.w3.org/2000/svg">
  <g transform="matrix(1 0 0 1 -214 -690 )">
    <path d="M 7.8515625 6.04403409090909  C 7.95052083333333 6.13399621212121  8 6.2405303030303  8 6.36363636363636  C 8 6.48674242424242  7.95052083333333 6.59327651515151  7.8515625 6.68323863636364  L 4.3515625 9.86505681818182  C 4.25260416666667 9.95501893939394  4.13541666666667 10  4 10  C 3.86458333333333 10  3.74739583333333 9.95501893939394  3.6484375 9.86505681818182  L 0.1484375 6.68323863636364  C 0.0494791666666667 6.59327651515151  0 6.48674242424242  0 6.36363636363636  C 0 6.2405303030303  0.0494791666666667 6.13399621212121  0.1484375 6.04403409090909  C 0.247395833333333 5.95407196969697  0.364583333333333 5.90909090909091  0.5 5.90909090909091  L 7.5 5.90909090909091  C 7.63541666666667 5.90909090909091  7.75260416666667 5.95407196969697  7.8515625 6.04403409090909  Z M 7.8515625 3.31676136363636  C 7.95052083333333 3.40672348484848  8 3.51325757575757  8 3.63636363636364  C 8 3.7594696969697  7.95052083333333 3.86600378787879  7.8515625 3.95596590909091  C 7.75260416666667 4.04592803030303  7.63541666666667 4.09090909090909  7.5 4.09090909090909  L 0.5 4.09090909090909  C 0.364583333333333 4.09090909090909  0.247395833333333 4.04592803030303  0.1484375 3.95596590909091  C 0.0494791666666667 3.86600378787879  0 3.7594696969697  0 3.63636363636364  C 0 3.51325757575757  0.0494791666666667 3.40672348484848  0.1484375 3.31676136363636  L 3.6484375 0.134943181818182  C 3.74739583333333 0.0449810606060597  3.86458333333333 0  4 0  C 4.13541666666667 0  4.25260416666667 0.0449810606060597  4.3515625 0.134943181818182  L 7.8515625 3.31676136363636  Z " fill-rule="nonzero" fill="#ffffff" stroke="none" transform="matrix(1 0 0 1 214 690 )" />
  </g>
</svg>